<svg xmlns="http://www.w3.org/2000/svg" version="1.1" xmlns:xlink="http://www.w3.org/1999/xlink" xmlns:svgjs="http://svgjs.dev/svgjs" width="1440" height="500" preserveAspectRatio="none" viewBox="0 0 1440 500"><g mask="url(&quot;#SvgjsMask1173&quot;)" fill="none"><rect width="1440" height="500" x="0" y="0" fill="rgba(244, 253, 248, 1)"></rect><path d="M0,400.679C75.358,392.005,144.631,365.112,210.763,327.954C280.54,288.748,352.137,248.244,393.376,179.649C437.126,106.877,451.552,20.561,446.524,-64.201C441.197,-154.005,429.696,-253.946,364.008,-315.414C299.26,-376.002,196.289,-353.758,111.031,-378.138C26.588,-402.285,-48.779,-477.221,-134.468,-457.955C-220.578,-438.594,-265.505,-346.844,-323.616,-280.414C-382.022,-213.647,-460.194,-155.751,-475.291,-68.337C-490.501,19.729,-444.792,104.989,-403.904,184.457C-364.586,260.873,-320.199,339.788,-244.434,380.347C-170.863,419.732,-82.903,410.221,0,400.679" fill="#6de5a2"></path><path d="M1440 916.37C1538.047 930.615 1636.731 985.527 1729.249 950.081 1825.971 913.024 1894.498 821.4100000000001 1935.79 726.419 1976.69 632.33 1994.412 521.251 1957.2240000000002 425.634 1922.101 335.327 1806.058 310.957 1744.955 235.755 1680.757 156.743 1690.375 8.569000000000017 1593.337-22.216999999999985 1496.9-52.81299999999999 1412.145 53.863 1323.114 101.92200000000003 1253.243 139.63799999999998 1181.939 171.41500000000002 1127.516 229.231 1071.354 288.894 1014.554 356.155 1006.998 437.744 999.553 518.137 1054.796 587.165 1087.532 660.967 1120.6770000000001 735.692 1133.96 825.241 1200.155 873.207 1267.294 921.857 1357.95 904.4490000000001 1440 916.37" fill="#ffffff"></path></g><defs><mask id="SvgjsMask1173"><rect width="1440" height="500" fill="#ffffff"></rect></mask></defs></svg>