<svg xmlns="http://www.w3.org/2000/svg" version="1.1" xmlns:xlink="http://www.w3.org/1999/xlink" xmlns:svgjs="http://svgjs.dev/svgjs" width="1440" height="560" preserveAspectRatio="none" viewBox="0 0 1440 560"><g mask="url(&quot;#SvgjsMask1046&quot;)" fill="none"><rect width="1440" height="560" x="0" y="0" fill="rgba(134, 22, 149, 1)"></rect><path d="M0,506.375C92.725,488.025,178.158,451.952,255.884,398.163C331.446,345.871,402.047,284.627,440.815,201.313C479.74,117.663,475.677,24.241,472.791,-67.977C469.57,-170.916,477.555,-279.19,423.044,-366.57C364.786,-459.956,265.484,-516.883,164.885,-561.546C52.889,-611.269,-71.098,-676.729,-187.185,-637.495C-302.967,-598.364,-358.844,-469.731,-419.948,-363.887C-471.766,-274.129,-497.861,-176.289,-512.661,-73.709C-527.468,28.917,-536.469,131.937,-505.774,230.979C-472.226,339.226,-429.984,460.007,-330.456,514.2C-231.688,567.98,-110.321,528.208,0,506.375" fill="#570e61"></path><path d="M1440 852.774C1499.165 854.1600000000001 1558.166 852.119 1612.155 827.879 1672.094 800.967 1724.79 760.889 1763.268 707.6320000000001 1807.714 646.116 1868.792 574.34 1848.093 501.325 1826.937 426.698 1719.664 420.171 1665.921 364.238 1616.372 312.66999999999996 1616.628 212.161 1548.716 189.748 1481.189 167.462 1421.803 246.551 1352.109 260.67 1272.599 276.778 1167.266 216.32999999999998 1114.277 277.759 1061.246 339.23699999999997 1137.888 434.747 1132.094 515.73 1126.912 588.164 1051.8890000000001 657.412 1082.402 723.31 1112.944 789.27 1204.603 795.191 1272.95 819.935 1327.413 839.653 1382.094 851.418 1440 852.774" fill="#b51ec9"></path></g><defs><mask id="SvgjsMask1046"><rect width="1440" height="560" fill="#ffffff"></rect></mask></defs></svg>